<svg width="190" height="296" viewBox="0 0 190 296" fill="none" xmlns="http://www.w3.org/2000/svg">
<path d="M0.5 95C0.5 42.8091 42.8091 0.5 95 0.5C147.191 0.5 189.5 42.8091 189.5 95H186.5C186.5 44.4659 145.534 3.5 95 3.5C44.4659 3.5 3.5 44.4659 3.5 95H0.5ZM188 284H2H188ZM95 284C42.8091 284 0.5 241.691 0.5 189.5V95C0.5 42.8091 42.8091 0.5 95 0.5V3.5C44.4659 3.5 3.5 44.4659 3.5 95V191C3.5 242.362 44.4659 284 95 284ZM95 0.5C147.191 0.5 189.5 42.8091 189.5 95V189.5C189.5 241.691 147.191 284 95 284C145.534 284 186.5 242.362 186.5 191V95C186.5 44.4659 145.534 3.5 95 3.5V0.5Z" fill="#2A2A2A"/>
<path d="M6 104C6 54.2944 46.2944 14 96 14C145.706 14 186 54.2944 186 104V206C186 255.706 145.706 296 96 296C46.2944 296 6 255.706 6 206V104Z" fill="#EEEEEE"/>
</svg>
