<svg width="1196" height="165" viewBox="0 0 1196 165" fill="none" xmlns="http://www.w3.org/2000/svg">
<path opacity="0.19" d="M188.451 3.26998L274.284 167.711H234.402L171.978 48.354L109.554 167.711H69.672L117.357 76.676L102.329 48.354L39.905 167.711H0.0229492L86.434 3.26998H118.513L137.298 38.528L155.794 3.26998H188.451ZM373.185 50.666L350.065 98.351H396.305L373.185 50.666ZM335.037 129.274L315.674 168H274.347L362.492 3.559H384.167L472.023 168H430.696L411.622 129.274H335.037ZM533.752 172.913C527.394 172.913 521.806 172.431 516.99 171.468C512.173 170.697 507.645 169.445 503.407 167.711C499.361 165.784 495.411 163.472 491.558 160.775C487.897 157.885 483.947 154.513 479.709 150.66L500.806 121.471C502.54 123.205 504.659 125.035 507.164 126.962C509.668 128.889 512.269 130.719 514.967 132.453C517.857 134.187 520.747 135.632 523.637 136.788C526.527 137.751 529.224 138.233 531.729 138.233C536.931 138.04 541.169 136.788 544.445 134.476C547.72 131.971 549.454 128.503 549.647 124.072C549.839 119.448 548.394 115.595 545.312 112.512C542.422 109.429 538.665 106.539 534.041 103.842C529.609 101.145 524.6 98.351 519.013 95.461C513.618 92.571 508.609 89.0067 503.985 84.768C499.361 80.5293 495.507 75.3273 492.425 69.162C489.342 62.804 487.801 54.8083 487.801 45.175C487.801 37.8537 489.342 31.4957 492.425 26.101C495.507 20.5137 499.457 15.8897 504.274 12.229C509.283 8.37566 514.678 5.582 520.458 3.84799C526.43 1.92133 532.307 0.957997 538.087 0.957997C543.867 0.957997 548.972 1.34333 553.404 2.114C558.028 2.69199 562.17 3.75166 565.831 5.29299C569.684 6.64165 573.152 8.37565 576.235 10.495C579.51 12.6143 582.785 15.119 586.061 18.009L568.432 50.088C562.652 45.0787 557.45 41.5143 552.826 39.395C548.202 37.083 543.481 35.7343 538.665 35.349C535.775 35.1563 532.981 35.7343 530.284 37.083C527.586 38.239 526.141 41.0327 525.949 45.464C525.756 49.7027 527.105 53.0743 529.995 55.579C533.077 57.891 536.834 60.203 541.266 62.515C545.89 64.6343 550.899 67.0427 556.294 69.74C561.688 72.2447 566.601 75.809 571.033 80.433C575.657 84.8643 579.414 90.548 582.304 97.484C585.194 104.42 586.542 113.379 586.35 124.361C586.157 131.875 584.423 138.618 581.148 144.591C578.065 150.564 574.019 155.669 569.01 159.908C564.193 164.147 558.606 167.326 552.248 169.445C546.082 171.757 539.917 172.913 533.752 172.913ZM659.343 172.913C652.985 172.913 647.397 172.431 642.581 171.468C637.764 170.697 633.236 169.445 628.998 167.711C624.952 165.784 621.002 163.472 617.149 160.775C613.488 157.885 609.538 154.513 605.3 150.66L626.397 121.471C628.131 123.205 630.25 125.035 632.755 126.962C635.259 128.889 637.86 130.719 640.558 132.453C643.448 134.187 646.338 135.632 649.228 136.788C652.118 137.751 654.815 138.233 657.32 138.233C662.522 138.04 666.76 136.788 670.036 134.476C673.311 131.971 675.045 128.503 675.238 124.072C675.43 119.448 673.985 115.595 670.903 112.512C668.013 109.429 664.256 106.539 659.632 103.842C655.2 101.145 650.191 98.351 644.604 95.461C639.209 92.571 634.2 89.0067 629.576 84.768C624.952 80.5293 621.098 75.3273 618.016 69.162C614.933 62.804 613.392 54.8083 613.392 45.175C613.392 37.8537 614.933 31.4957 618.016 26.101C621.098 20.5137 625.048 15.8897 629.865 12.229C634.874 8.37566 640.269 5.582 646.049 3.84799C652.021 1.92133 657.898 0.957997 663.678 0.957997C669.458 0.957997 674.563 1.34333 678.995 2.114C683.619 2.69199 687.761 3.75166 691.422 5.29299C695.275 6.64165 698.743 8.37565 701.826 10.495C705.101 12.6143 708.376 15.119 711.652 18.009L694.023 50.088C688.243 45.0787 683.041 41.5143 678.417 39.395C673.793 37.083 669.072 35.7343 664.256 35.349C661.366 35.1563 658.572 35.7343 655.875 37.083C653.177 38.239 651.732 41.0327 651.54 45.464C651.347 49.7027 652.696 53.0743 655.586 55.579C658.668 57.891 662.425 60.203 666.857 62.515C671.481 64.6343 676.49 67.0427 681.885 69.74C687.279 72.2447 692.192 75.809 696.624 80.433C701.248 84.8643 705.005 90.548 707.895 97.484C710.785 104.42 712.133 113.379 711.941 124.361C711.748 131.875 710.014 138.618 706.739 144.591C703.656 150.564 699.61 155.669 694.601 159.908C689.784 164.147 684.197 167.326 677.839 169.445C671.673 171.757 665.508 172.913 659.343 172.913ZM821.925 50.666L798.805 98.351H845.045L821.925 50.666ZM783.777 129.274L764.414 168H723.087L811.232 3.559H832.907L920.763 168H879.436L860.362 129.274H783.777ZM1002.06 0.0909913C1013.81 0.0909913 1024.79 2.30666 1035 6.73799C1045.41 11.1693 1054.56 17.3347 1062.46 25.234L1036.74 45.464C1031.92 41.6107 1026.53 38.528 1020.55 36.216C1014.77 33.904 1008.61 32.748 1002.06 32.748C994.544 32.748 987.512 34.193 980.961 37.083C974.603 39.7803 968.92 43.6337 963.91 48.643C959.094 53.4597 955.24 59.1433 952.35 65.694C949.653 72.2447 948.304 79.1807 948.304 86.502C948.304 94.016 949.653 101.048 952.35 107.599C955.24 113.957 959.094 119.641 963.91 124.65C968.92 129.467 974.603 133.32 980.961 136.21C987.512 138.907 994.544 140.256 1002.06 140.256C1008.03 140.256 1013.71 139.293 1019.11 137.366C1024.7 135.439 1029.71 132.838 1034.14 129.563C1038.76 126.095 1042.71 122.049 1045.99 117.425C1049.26 112.608 1051.67 107.406 1053.21 101.819H1002.06V73.786H1054.08L1053.79 73.208H1087.02C1087.6 77.832 1087.89 82.2633 1087.89 86.502C1087.89 98.4473 1085.58 109.718 1080.96 120.315C1076.52 130.912 1070.45 140.16 1062.75 148.059C1055.04 155.766 1045.89 161.931 1035.29 166.555C1024.89 170.986 1013.81 173.202 1002.06 173.202C990.113 173.202 978.842 170.986 968.245 166.555C957.841 161.931 948.69 155.766 940.79 148.059C933.084 140.16 926.918 130.912 922.294 120.315C917.863 109.718 915.647 98.4473 915.647 86.502C915.647 74.7493 917.863 63.671 922.294 53.267C926.918 42.6703 933.084 33.4223 940.79 25.523C948.69 17.6237 957.841 11.4583 968.245 7.02699C978.842 2.40299 990.113 0.0909913 1002.06 0.0909913ZM1101.8 168V3.559H1195.43V32.748H1137.92V70.896H1191.97V104.131H1137.92V135.054H1195.43V168H1101.8Z" fill="#BCBCBC"/>
</svg>
