<svg width="1375" height="888" viewBox="0 0 1375 888" fill="none" xmlns="http://www.w3.org/2000/svg">
<path d="M125 121H141V141H125V121Z" fill="#2A2A2A" fill-opacity="0.5"/>
<path d="M1372.31 202.841L1356.44 200.864L1358.91 181.017L1374.78 182.994L1372.31 202.841Z" fill="#2A2A2A" fill-opacity="0.5"/>
<path d="M752.706 529.881L765.975 538.821L754.8 555.408L741.53 546.467L752.706 529.881Z" fill="#2A2A2A" fill-opacity="0.5"/>
<path d="M340.983 112.544L325.405 116.194L320.843 96.7209L336.421 93.0716L340.983 112.544Z" fill="#2A2A2A" fill-opacity="0.5"/>
<path d="M238.664 821.052L225.637 811.763L237.248 795.479L250.276 804.768L238.664 821.052Z" fill="#2A2A2A" fill-opacity="0.5"/>
<path d="M333.951 257.562L349.561 254.05L353.95 273.563L338.34 277.074L333.951 257.562Z" fill="#2A2A2A" fill-opacity="0.5"/>
<path d="M1088.41 120.948L1075.89 110.98L1088.35 95.3354L1100.87 105.303L1088.41 120.948Z" fill="#2A2A2A" fill-opacity="0.5"/>
<path d="M606.703 578.814L599.916 593.304L581.804 584.821L588.591 570.331L606.703 578.814Z" fill="#2A2A2A" fill-opacity="0.5"/>
<path d="M0.484955 470.357L5.15871 455.055L24.2864 460.897L19.6126 476.199L0.484955 470.357Z" fill="#2A2A2A" fill-opacity="0.5"/>
<path d="M1029.63 285.64L1044.82 280.628L1051.09 299.622L1035.89 304.633L1029.63 285.64Z" fill="#2A2A2A" fill-opacity="0.5"/>
<path d="M379.311 40.4884L395.151 38.23L397.974 58.0298L382.134 60.2882L379.311 40.4884Z" fill="#2A2A2A" fill-opacity="0.5"/>
<path d="M161.343 381.309L156.265 396.482L137.299 390.134L142.377 374.961L161.343 381.309Z" fill="#2A2A2A" fill-opacity="0.5"/>
<path d="M635.702 105.501L643.865 91.74L661.067 101.944L652.904 115.705L635.702 105.501Z" fill="#2A2A2A" fill-opacity="0.5"/>
<path d="M416.857 556.828L430.204 548.005L441.233 564.69L427.885 573.512L416.857 556.828Z" fill="#2A2A2A" fill-opacity="0.5"/>
<path d="M1111.44 684.708L1101.98 671.805L1118.11 659.978L1127.57 672.88L1111.44 684.708Z" fill="#2A2A2A" fill-opacity="0.5"/>
<path d="M902.417 26.0957L889.228 17.0384L900.549 0.551399L913.739 9.60872L902.417 26.0957Z" fill="#2A2A2A" fill-opacity="0.5"/>
<path d="M1340.78 870.194L1354.35 861.729L1364.94 878.7L1351.36 887.166L1340.78 870.194Z" fill="#2A2A2A" fill-opacity="0.5"/>
<path d="M612.139 338.605L619.934 352.578L602.468 362.321L594.673 348.349L612.139 338.605Z" fill="#2A2A2A" fill-opacity="0.5"/>
</svg>
