<svg width="602" height="719" viewBox="0 0 602 719" fill="none" xmlns="http://www.w3.org/2000/svg">
<path d="M5.2906 0C5.55709 0.759247 5.69218 1.09488 5.79327 1.43958C7.00811 5.57965 8.97834 9.33963 11.5799 12.7939C14.0464 16.0695 17.1809 18.4117 21.1784 19.5456C22.7396 19.9882 24.3248 20.3556 25.9082 20.7212C28.1624 21.241 30.4368 21.6773 32.6781 22.2433C34.2504 22.6406 35.7989 23.1504 37.3298 23.6874C42.3501 25.4481 45.7373 28.8661 47.7305 33.711C48.836 36.3979 49.9627 39.0784 51.1812 41.7172C52.8362 45.3021 55.412 48.0997 58.8939 50.059C59.8717 50.6096 60.8467 51.1648 61.8337 51.6991C65.8477 53.8707 68.6284 57.0864 70.163 61.3363C71.0443 63.7773 71.8888 66.231 72.7122 68.692C73.7736 71.8597 74.9545 74.9711 76.4818 77.96C78.679 82.2597 81.762 85.7349 85.9304 88.2458C87.2114 89.0168 88.5108 89.7625 89.8415 90.4455C95.9148 93.5642 101.088 97.8067 105.583 102.854C109.15 106.857 111.111 111.622 111.955 116.859C112.552 120.565 112.416 124.255 111.565 127.9C110.905 130.727 110.111 133.524 109.352 136.327C108.463 139.608 107.529 142.878 106.653 146.162C106.319 147.415 106.055 148.689 105.827 149.965C105.19 153.509 105.827 156.853 107.617 159.97C108.542 161.581 109.612 163.11 110.54 164.719C111.467 166.326 112.377 167.951 113.153 169.631C114.25 172.003 114.401 174.505 113.932 177.068C113.62 178.767 113.359 180.479 113.159 182.195C112.691 186.203 113.909 189.745 116.294 192.958C119.352 197.076 123.234 200.206 127.858 202.455C129.261 203.137 130.665 203.822 132.107 204.415C134.715 205.487 137.403 206.3 140.228 206.606C142.156 206.815 144.08 207.056 146.011 207.231C147.06 207.325 148.127 207.453 149.139 206.949C149.438 206.799 149.815 206.915 149.934 207.226C150.028 207.475 150.029 207.865 149.888 208.069C149.696 208.348 149.358 208.614 149.032 208.699C148.497 208.839 147.916 208.917 147.367 208.869C144.378 208.607 141.373 208.426 138.413 207.972C135.119 207.467 132.021 206.242 129.038 204.79C126.683 203.643 124.379 202.397 122.051 201.197C120 200.138 117.982 199.014 115.889 198.045C112.812 196.619 109.553 195.751 106.179 195.319C104.24 195.07 102.301 195.085 100.393 195.501C98.5035 195.913 96.6261 196.389 94.7634 196.907C91.7033 197.757 89.28 199.564 87.3401 202C86.3375 203.259 85.4562 204.612 84.5226 205.925C83.4097 207.49 82.3612 209.104 81.1702 210.608C80.368 211.62 79.4362 212.561 78.4391 213.388C76.7712 214.772 74.7927 215.328 72.6497 214.808C71.3852 214.501 70.1318 214.052 68.9611 213.488C65.3726 211.759 62.3575 209.278 59.721 206.336C57.6497 204.024 55.5949 201.699 53.5034 199.406C51.1306 196.804 48.1845 195.135 44.7375 194.338C43.0319 193.944 41.3144 193.603 39.6033 193.233C34.9369 192.223 30.7428 190.233 27.0495 187.247C24.2559 184.988 22.0605 182.254 20.4331 179.056C18.2552 174.775 16.7848 170.27 15.8595 165.582C15.1555 162.016 15.2327 158.465 16.0717 154.921C16.7426 152.087 17.6643 149.335 18.6567 146.602C19.1851 145.149 19.7558 143.709 20.2337 142.241C20.6343 141.009 21.0001 139.756 21.2528 138.488C21.8051 135.72 21.3511 133.087 19.9681 130.611C18.6044 128.169 16.9696 125.91 15.218 123.729C12.8526 120.783 11.1866 117.506 10.2768 113.844C9.45712 110.545 9.41393 107.25 10.1077 103.931C10.7179 101.007 11.8069 98.2521 13.098 95.5662C14.3312 93.0009 15.5884 90.4455 16.7812 87.8621C17.429 86.4588 17.9979 85.0173 18.5364 83.5687C18.9232 82.5273 19.2458 81.4578 19.5215 80.3811C20.9201 74.9239 19.4636 70.0953 15.9706 65.8346C14.3239 63.8263 12.3923 62.0456 10.592 60.1588C5.30163 54.6136 1.89875 48.1505 0.716057 40.5752C0.142631 36.8995 -0.132134 33.2185 0.0617597 29.5038C0.451393 22.0202 1.70209 14.6544 3.14577 7.31314C3.55195 5.24947 4.00132 3.19939 4.77599 1.23276C4.88901 0.952469 5.00941 0.674896 5.2906 0ZM95.2284 184.602C95.0878 184.231 95.0051 183.954 94.8801 183.697C93.3169 180.465 92.5928 177.055 92.6452 173.479C92.7205 168.301 93.6064 163.274 95.6777 158.502C96.6858 156.18 97.7968 153.892 99.0291 151.68C101.016 148.113 103.141 144.622 105.207 141.098C106.338 139.17 107.324 137.174 108.006 135.046C108.969 132.042 109.837 129.009 110.323 125.891C111.433 118.77 110.115 112.119 106.083 106.082C104.25 103.337 101.841 101.072 99.314 98.9425C99.2304 98.8717 99.0935 98.8608 98.9078 98.7964C98.8766 99.0486 98.8058 99.2862 98.8233 99.5185C98.9409 101.072 98.7314 102.599 98.4566 104.121C97.84 107.532 96.9422 110.871 95.7632 114.133C94.0971 118.741 91.9321 123.123 89.3691 127.301C86.8769 131.362 84.2699 135.355 81.6812 139.358C79.7633 142.325 77.9613 145.355 76.388 148.515C74.4104 152.488 73.2094 156.688 72.669 161.075C72.4264 163.045 72.4025 165.025 72.7471 166.98C73.4851 171.171 75.4047 174.562 79.1605 176.959C84.0236 180.062 89.2331 182.42 94.5575 184.582C94.7027 184.642 94.8911 184.596 95.2284 184.602ZM67.4411 166.178C67.6185 165.845 67.6699 165.792 67.669 165.74C67.6681 165.494 67.6663 165.246 67.6405 165.002C66.91 157.907 68.179 151.107 70.7723 144.509C72.1314 141.052 73.826 137.751 75.5683 134.47C77.8014 130.262 79.9958 126.034 82.1259 121.775C83.8159 118.396 85.1796 114.878 86.355 111.29C87.2225 108.641 87.8813 105.944 88.2747 103.185C88.7773 99.6554 88.5724 96.1739 87.5992 92.7314C87.2114 91.3608 86.5057 90.372 85.1971 89.6255C81.6178 87.5863 78.7773 84.7606 76.5911 81.28C75.3349 79.279 74.2404 77.208 73.3472 75.0291C73.0072 74.1991 73.0026 74.2009 72.375 73.6503C72.374 73.8517 72.363 74.034 72.374 74.2154C72.9778 84.152 70.6988 93.449 66.0223 102.22C64.3314 105.39 62.3713 108.396 60.4194 111.412C58.8728 113.801 57.3768 116.225 55.9607 118.69C54.8175 120.681 54.0244 122.833 53.44 125.055C53.0899 126.384 52.9373 127.716 53.1523 129.086C53.6596 132.316 54.0318 135.571 54.6649 138.776C56.4992 148.054 60.2227 156.547 65.8339 164.22C66.3035 164.861 66.842 165.451 67.4411 166.178ZM20.6068 70.2713C20.7731 71.0025 20.8273 71.3644 20.9385 71.7082C21.795 74.3606 21.8767 77.0583 21.2895 79.7552C20.9495 81.3191 20.5158 82.8811 19.9304 84.3697C18.9361 86.8987 17.8793 89.4123 16.6681 91.8452C16.0433 93.1006 16.0901 94.1774 16.636 95.3666C17.7047 97.6961 19.1539 99.7643 20.933 101.617C23.4583 104.246 26.4099 106.3 29.7209 107.834C32.0964 108.934 34.5344 109.904 36.9255 110.973C39.3727 112.068 41.8235 113.159 44.2211 114.354C46.4587 115.47 48.5135 116.879 50.3091 118.628C50.4764 118.79 50.6794 118.916 51.0038 119.165C51.0801 118.678 51.16 118.331 51.1839 117.982C51.3429 115.642 51.5065 113.302 51.6379 110.961C51.8548 107.079 52.0441 103.195 52.2536 99.3135C52.3005 98.4408 52.2251 97.6026 51.9053 96.7708C50.5453 93.2358 48.8599 89.8885 46.5203 86.8606C42.8114 82.0602 38.3214 78.2648 32.702 75.7866C28.7698 74.0531 24.6869 72.6525 20.6068 70.2713ZM75.2788 176.6C75.322 176.511 75.3652 176.421 75.4093 176.331C75.1814 176.138 74.9508 175.948 74.7266 175.751C73.2783 174.484 71.7776 173.269 70.3955 171.935C67.4338 169.077 64.9563 165.818 62.635 162.446C62.0597 161.609 61.3815 160.944 60.5379 160.378C58.1432 158.772 55.5876 157.494 52.8574 156.56C51.0856 155.955 49.3056 155.37 47.5182 154.81C42.5633 153.256 37.736 151.405 33.1348 148.994C29.5279 147.104 26.1416 144.922 23.2552 142.039C23.0107 141.795 22.6781 141.637 22.3914 141.443C22.2517 141.618 22.1432 141.703 22.1046 141.812C20.944 145.071 19.7044 148.307 18.6659 151.604C18.0006 153.717 17.6275 155.92 17.1331 158.084C16.7968 159.558 17.1928 160.851 18.0006 162.12C20.4211 165.92 23.6788 168.811 27.6156 170.998C31.7803 173.311 36.2997 174.412 41.0213 174.841C45.8292 175.276 50.6344 175.12 55.4442 174.868C57.9392 174.736 60.4387 174.651 62.9373 174.634C66.5874 174.608 70.1621 175.164 73.6642 176.181C74.1972 176.336 74.7403 176.462 75.2788 176.6ZM15.5443 94.7897C15.2805 95.0019 15.1491 95.0582 15.0995 95.1552C13.767 97.7496 12.6192 100.415 11.9071 103.247C11.4071 105.235 11.1168 107.252 11.2427 109.301C11.2914 110.09 11.4172 110.91 11.7012 111.642C12.1469 112.79 12.7111 113.902 13.3048 114.986C16.5946 121 21.1517 125.939 26.5395 130.183C31.6388 134.201 37.1497 137.588 42.8169 140.749C46.8989 143.026 50.9864 145.298 54.778 148.04C54.9213 148.144 55.1033 148.198 55.4139 148.344C55.3762 147.954 55.3918 147.66 55.3156 147.39C54.7577 145.431 54.0943 143.497 53.6284 141.518C52.1663 135.31 51.2464 129.021 51.1959 122.639C51.1839 121.148 50.7217 119.997 49.6254 119.059C48.7303 118.292 47.8344 117.517 46.8713 116.839C44.5197 115.182 41.9375 113.928 39.2946 112.796C36.5984 111.641 33.8847 110.526 31.1931 109.36C28.9563 108.391 26.7959 107.279 24.7999 105.875C21.0717 103.251 17.9868 100.083 16.1039 95.8918C15.955 95.5625 15.7749 95.2441 15.5443 94.7897ZM4.33488 10.0336C4.20899 10.5007 4.07023 10.8926 4.0013 11.2963C3.6659 13.2429 3.33231 15.1914 3.02906 17.1426C2.34628 21.5367 1.77377 25.9425 1.62582 30.3937C1.52105 33.5496 1.79949 36.6728 2.19189 39.8032C2.48595 42.1517 3.38102 44.2045 4.76955 46.0677C5.65633 47.2579 6.6001 48.419 7.62289 49.4957C11.3318 53.4035 15.6766 56.5013 20.4184 59.0676C23.2129 60.5806 26.0267 62.0601 28.8442 63.5324C32.328 65.353 35.6978 67.3613 38.9738 69.5202C41.7344 71.3408 44.335 73.36 46.569 75.8038C47.4006 76.7136 48.213 77.6407 49.0345 78.5596C49.1154 78.009 49.0428 77.5455 48.8664 77.1237C46.5304 71.5395 43.2837 66.4996 39.301 61.9377C36.3208 58.5233 32.9722 55.4527 29.5766 52.4466C26.6939 49.8949 23.6917 47.4729 20.785 44.9465C17.8233 42.3712 15.1169 39.5474 12.7883 36.3961C9.94692 32.5536 8.26249 28.1758 6.91254 23.6575C5.72343 19.6762 5.08292 15.5978 4.76037 11.465C4.72269 11.0087 4.88258 10.4762 4.33488 10.0336ZM91.5691 185.434C91.4698 185.223 91.4487 185.066 91.3724 185.033C89.8847 184.39 88.429 183.644 86.8898 183.152C82.8868 181.87 78.7727 181.089 74.5584 180.934C69.3608 180.743 64.1871 180.963 59.0474 181.836C56.0921 182.338 53.1312 182.835 50.1538 183.176C40.514 184.28 31.3254 182.87 22.7608 178.178C22.5173 178.045 22.2397 177.971 21.9475 177.858C21.9144 178.103 21.8501 178.239 21.8924 178.319C22.9243 180.304 24.1291 182.176 25.6849 183.807C29.437 187.738 34.0216 190.253 39.3129 191.535C40.8917 191.918 42.4962 192.196 44.0814 192.551C46.2859 193.044 48.4115 193.747 50.401 194.839C51.0452 195.193 51.773 195.436 52.4925 195.611C55.9827 196.458 59.4444 196.138 62.8804 195.267C65.673 194.559 68.3481 193.522 70.9754 192.365C74.1155 190.984 77.2252 189.535 80.3818 188.192C83.6091 186.82 86.9431 185.793 90.4866 185.581C90.8367 185.56 91.1841 185.487 91.5691 185.434ZM114.532 193.858C114.612 193.771 114.692 193.685 114.771 193.598C114.604 193.341 114.44 193.083 114.271 192.828C111.983 189.39 111.061 185.633 111.611 181.548C111.826 179.959 112.064 178.371 112.355 176.794C112.793 174.416 112.596 172.121 111.549 169.925C111.071 168.923 110.579 167.921 110.011 166.967C109.124 165.478 108.124 164.054 107.25 162.558C106.502 161.278 105.775 159.972 105.195 158.612C103.979 155.756 103.672 152.761 104.255 149.718C104.662 147.598 105.217 145.506 105.7 143.4C105.815 142.898 105.903 142.39 106.003 141.884C105.532 142.137 105.288 142.472 105.079 142.827C103.29 145.866 101.495 148.901 99.7303 151.954C99.0494 153.132 98.4162 154.338 97.8069 155.554C95.0216 161.113 93.5099 166.985 93.4061 173.201C93.3721 175.248 93.5531 177.269 94.0686 179.253C94.5676 181.171 95.2063 183.036 96.3421 184.7C96.7345 185.275 97.1995 185.721 97.8841 185.981C99.4592 186.577 101.002 187.254 102.574 187.859C106.371 189.319 110.015 191.072 113.434 193.271C113.782 193.495 114.165 193.664 114.532 193.858ZM88.2039 91.4352C88.1175 91.7273 88.078 91.7862 88.089 91.8334C88.1478 92.0711 88.2149 92.3078 88.2866 92.5428C89.4243 96.2792 89.5621 100.072 88.9427 103.908C88.5182 106.536 87.8832 109.115 87.046 111.644C85.8799 115.17 84.5465 118.636 82.8795 121.96C80.7154 126.274 78.4501 130.538 76.263 134.841C74.8616 137.597 73.4602 140.359 72.1691 143.167C70.6629 146.44 69.6457 149.881 68.9454 153.408C68.1092 157.624 67.9971 161.863 68.5475 166.127C68.7221 167.478 69.279 168.595 70.2421 169.543C71.0829 170.371 71.9054 171.218 72.7646 172.028C72.9888 172.239 73.3169 172.342 73.8784 172.649C71.8456 168.777 71.4422 164.952 71.91 161.013C72.4393 156.562 73.6523 152.298 75.6666 148.268C77.0506 145.498 78.5558 142.797 80.2485 140.197C82.4457 136.823 84.6172 133.433 86.7942 130.047C89.3452 126.081 91.627 121.97 93.5292 117.66C95.5877 112.993 97.0185 108.142 97.8483 103.12C98.0707 101.775 98.1846 100.426 97.9953 99.0631C97.8529 98.0408 97.4348 97.2398 96.5645 96.5785C94.3269 94.8768 91.9587 93.39 89.4822 92.0629C89.1045 91.8588 88.7139 91.6846 88.2039 91.4352ZM42.9437 63.7546C43.0981 63.4181 43.1927 63.3101 43.1872 63.2076C43.0604 60.5425 43.4767 57.9192 43.7653 55.2831C44.0125 53.0162 44.2808 50.743 44.3598 48.467C44.5326 43.4607 43.6614 38.6349 41.3631 34.1265C39.3001 30.0799 36.3888 26.7571 32.5072 24.297C31.6066 23.7255 30.6417 23.3164 29.5803 23.1078C27.6193 22.7223 25.6684 22.2887 23.7101 21.8895C23.4325 21.8333 23.098 21.6628 22.8352 22.139C22.9813 22.403 23.1394 22.725 23.3296 23.0262C24.2945 24.5519 25.0251 26.1811 25.5976 27.8856C27.7112 34.1782 28.4087 40.6305 27.8582 47.2261C27.8178 47.7114 27.7966 48.1985 27.7654 48.6838C33.0723 53.438 38.382 58.1151 42.9437 63.7546ZM63.9041 55.1888C64.1347 56.007 64.2827 56.4696 64.3939 56.9404C64.7615 58.4997 65.2595 60.0454 65.4525 61.6265C66.7739 72.4838 65.2724 82.9237 60.4755 92.8303C59.4527 94.9421 58.2792 96.9858 57.1222 99.0313C55.9009 101.19 54.7357 103.373 53.9629 105.731C53.7147 106.487 53.5181 107.282 53.4547 108.071C53.2075 111.147 52.9915 114.225 52.8279 117.307C52.7397 118.969 52.7737 120.638 52.7701 122.303C52.7691 122.566 52.6828 122.936 53.1514 122.956C53.2231 122.849 53.3159 122.755 53.3564 122.643C54.6355 119.135 56.5019 115.932 58.5521 112.822C59.7789 110.962 61.0131 109.106 62.216 107.23C66.2612 100.919 69.3663 94.2236 70.7659 86.8289C72.397 78.2131 72.1719 69.7597 68.5227 61.6075C68.0182 60.4818 67.4797 59.3587 66.8291 58.3119C66.15 57.218 65.4093 56.134 63.9041 55.1888ZM58.9353 203.065C60.0105 204.247 60.9441 205.316 61.9228 206.343C64.2147 208.746 66.8355 210.73 69.8515 212.165C70.8017 212.616 71.8172 212.966 72.8363 213.24C74.2285 213.614 75.5426 213.341 76.7813 212.576C78.1892 211.707 79.2993 210.545 80.2541 209.241C81.4248 207.643 82.5046 205.979 83.6551 204.365C84.5887 203.055 85.5095 201.73 86.5397 200.495C88.4042 198.258 90.7531 196.668 93.5118 195.659C99.2212 193.569 105.023 192.882 110.987 194.473C111.227 194.538 111.474 194.587 111.721 194.612C111.816 194.622 111.92 194.544 112.021 194.506C111.971 194.395 111.954 194.248 111.873 194.196C109.303 192.505 106.601 191.18 103.482 190.711C100.115 190.203 96.7529 189.936 93.4153 190.653C91.1032 191.15 88.8242 191.844 86.5856 192.61C82.3134 194.071 78.4501 196.384 74.4803 198.473C72.4972 199.516 70.4902 200.539 68.4143 201.377C65.6822 202.48 62.8362 203.197 59.8267 202.926C59.6034 202.904 59.369 202.993 58.9353 203.065ZM54.1035 95.0346C54.2872 94.8078 54.4297 94.6944 54.4894 94.5475C55.7943 91.3436 57.09 88.136 58.3885 84.9285C60.5821 79.5112 61.4008 73.8698 61.1711 68.067C60.9432 62.3314 59.6815 56.8379 57.1498 51.6447C56.8134 50.9544 56.4091 50.3738 55.7925 49.9184C54.2293 48.7646 52.9061 47.3785 51.761 45.8219C51.7096 45.7521 51.558 45.7548 51.4532 45.7249C51.4063 45.7593 51.3218 45.792 51.32 45.8292C51.2997 46.1303 51.2621 46.4351 51.2906 46.7326C51.6544 50.5598 51.5286 54.3714 50.9616 58.1723C50.7162 59.8205 50.4148 61.4633 50.2485 63.1187C50.0334 65.2641 49.8377 67.4194 49.7954 69.5728C49.7311 72.8638 50.2797 76.0714 51.3714 79.1982C51.9191 80.7675 52.3363 82.3876 52.7131 84.0068C53.4271 87.0801 53.7588 90.2069 53.8755 93.3573C53.8949 93.8789 53.8057 94.4305 54.1035 95.0346ZM60.1869 159.141C60.2568 159.056 60.3257 158.97 60.3955 158.884C59.5914 157.291 58.7249 155.724 58.009 154.092C57.6056 153.172 57.0193 152.576 56.1215 152.169C55.2135 151.758 54.3433 151.267 53.4593 150.806C47.5477 147.722 41.6186 144.669 35.7318 141.54C31.0902 139.071 26.7591 136.168 23.1789 132.281C23.0493 132.14 22.8095 132.097 22.5706 131.984C22.7498 133.465 23.0291 134.802 23.0401 136.14C23.0512 137.543 22.804 138.949 22.6643 140.402C22.8508 140.621 23.0328 140.872 23.2533 141.083C25.5011 143.24 27.9372 145.155 30.6399 146.737C35.2833 149.456 40.1869 151.601 45.3027 153.287C47.7342 154.088 50.1768 154.853 52.6028 155.669C54.9755 156.465 57.2656 157.449 59.4012 158.758C59.6475 158.913 59.9241 159.016 60.1869 159.141ZM24.1916 45.6142C24.2008 44.9112 24.2329 44.4875 24.2081 44.0676C23.9857 40.3466 23.065 36.7689 21.8565 33.2593C20.5204 29.3768 18.5704 25.791 16.0984 22.5127C13.4463 18.9967 11.205 15.2186 8.73667 11.5865C8.0787 10.6178 7.56501 9.55371 6.97872 8.53592C6.84272 8.30008 6.68281 8.07602 6.52108 7.82748C6.37864 7.96173 6.30329 7.998 6.29685 8.04518C6.26101 8.28555 6.21598 8.52867 6.22333 8.76997C6.44021 15.4781 7.65781 21.9939 10.173 28.2439C11.1884 30.7675 12.3895 33.204 14.0344 35.4064C15.8549 37.8438 17.9004 40.0871 20.1068 42.1835C21.3125 43.3264 22.4934 44.5138 24.1916 45.6142ZM4.29813 46.8814C4.21267 46.9186 4.12812 46.9558 4.04266 46.993C4.33948 47.7314 4.61701 48.477 4.93589 49.2054C6.2123 52.1218 8.02999 54.6926 10.0517 57.1508C12.8885 60.6006 16.2004 63.4653 20.2318 65.4691C22.7452 66.7182 25.2723 67.9437 27.827 69.1066C31.0102 70.5562 34.1411 72.0955 37.147 73.8825C39.7834 75.4509 42.2177 77.2824 44.4499 79.3624C46.8272 81.5776 48.8452 84.0867 50.4515 86.9114C50.7934 87.5128 51.0452 88.2068 51.841 88.8572C51.7721 87.169 51.3953 85.812 51.1904 84.4314C50.9469 82.7886 50.2236 81.4025 49.2229 80.0936C46.2179 76.163 42.6763 72.8076 38.5015 70.1053C34.9424 67.8022 31.2932 65.6568 27.5274 63.6956C24.3202 62.0247 21.1361 60.3067 17.9868 58.5315C13.9425 56.2528 10.343 53.3927 7.12115 50.079C6.13145 49.0612 5.23638 47.95 4.29813 46.8814ZM101.567 189.599C101.602 189.502 101.637 189.405 101.673 189.307C101.359 189.153 101.052 188.98 100.729 188.846C99.1716 188.204 97.591 187.611 96.0536 186.925C94.881 186.403 93.6772 186.222 92.4072 186.241C89.5088 186.286 86.6931 186.762 83.9418 187.664C80.3119 188.854 76.91 190.561 73.4354 192.104C70.129 193.572 66.8153 195.012 63.2948 195.93C60.3045 196.71 57.2913 197.1 54.2027 196.667C53.905 196.625 53.5971 196.655 53.0788 196.649C53.5493 197.15 53.8811 197.502 54.2119 197.855C55.1465 198.85 56.1261 199.808 56.9991 200.853C57.5991 201.57 58.3086 201.955 59.211 202.102C60.5867 202.327 61.9541 202.266 63.3169 202.033C65.7971 201.61 68.1772 200.843 70.4158 199.729C73.1506 198.368 75.8523 196.938 78.5209 195.456C81.5847 193.755 84.7918 192.388 88.1037 191.258C92.2234 189.851 96.4432 189.109 100.823 189.593C101.067 189.62 101.318 189.598 101.567 189.599ZM76.0783 178.024C72.0625 176.335 67.9263 175.424 63.6311 175.41C61.0085 175.401 58.3848 175.525 55.7612 175.593C52.3887 175.679 49.0161 175.838 45.6427 175.838C42.135 175.838 38.6384 175.524 35.2254 174.689C27.9869 172.92 21.976 169.319 17.7755 163.08C17.6634 162.913 17.6009 162.579 17.1598 162.761C17.1644 163.028 17.1313 163.328 17.18 163.615C17.3849 164.832 17.6376 166.04 17.8288 167.258C18.0401 168.607 18.7495 169.649 19.7301 170.569C22.0587 172.754 24.6446 174.564 27.5568 175.916C31.6893 177.837 36.0562 178.793 40.6013 179.026C44.2302 179.212 47.85 179.068 51.4624 178.723C54.5712 178.426 57.6763 178.084 60.7833 177.757C65.5922 177.249 70.3928 177.342 75.1879 177.927C75.4847 177.962 75.7815 177.992 76.0783 178.024ZM54.0869 103.005C55.0132 101.329 55.9441 99.6554 56.864 97.9764C57.7554 96.3481 58.6853 94.738 59.5106 93.077C64.4123 83.2077 65.9901 72.7886 64.7376 61.9096C64.4674 59.5656 63.8002 57.3196 63.0577 55.0881C62.8307 54.4068 62.4586 53.8889 61.8162 53.5396C60.8311 53.0044 59.8671 52.4293 58.8802 51.8978C58.6964 51.7989 58.4427 51.8261 58.1257 51.7816C58.7873 53.5306 59.4949 55.1089 59.9875 56.7508C62.7885 66.085 62.7765 75.3766 59.3286 84.5665C58.3086 87.286 57.0974 89.9357 56.0691 92.6525C55.3266 94.6146 54.7045 96.6248 54.097 98.6331C53.667 100.054 53.7772 101.525 54.0869 103.005ZM80.2513 180.691C80.2724 180.584 80.2926 180.479 80.3138 180.373C80.0491 180.235 79.7946 180.076 79.5198 179.964C77.4797 179.134 75.3625 178.633 73.1597 178.451C68.7828 178.089 64.4187 178.133 60.0463 178.582C55.4451 179.054 50.8375 179.48 46.2225 179.793C42.7213 180.03 39.2155 179.857 35.7492 179.245C29.9617 178.222 24.7558 175.967 20.3155 172.102C20.0085 171.835 19.686 171.587 19.1833 171.177C19.21 171.643 19.1732 171.887 19.2449 172.095C19.5252 172.913 19.8973 173.704 20.128 174.535C20.4294 175.624 21.0773 176.384 22.0633 176.91C22.5586 177.174 23.0273 177.485 23.5235 177.746C27.5871 179.882 31.8731 181.38 36.4219 182.133C41.0838 182.905 45.7631 182.999 50.4433 182.395C53.4179 182.011 56.376 181.503 59.3387 181.035C65.9873 179.985 72.6525 179.771 79.3415 180.624C79.642 180.662 79.948 180.669 80.2513 180.691ZM34.697 24.815C34.9672 25.0572 35.2319 25.3048 35.5066 25.5416C40.3504 29.7052 43.3242 34.9257 44.5445 41.1349C45.265 44.8005 45.3063 48.4897 44.8983 52.1898C44.6484 54.4594 44.3626 56.7245 44.1016 58.9923C43.904 60.714 43.8792 62.4375 44.0841 64.1619C44.21 65.2205 44.4774 66.2156 45.1575 67.0774C45.4635 67.4656 45.7006 67.9074 45.9974 68.3038C46.1196 68.4671 46.3163 68.5768 46.6572 68.8571C47.0882 64.8885 47.5412 61.1621 47.8803 57.4257C48.0586 55.4627 48.0981 53.4825 48.0935 51.5104C48.0834 46.9213 47.4429 42.4139 46.1315 38.0044C45.1951 34.8567 43.995 31.817 42.2821 28.9959C41.9338 28.4217 41.5515 27.8003 41.0249 27.4111C39.1622 26.035 37.0652 25.1152 34.697 24.815ZM56.5359 151.416C56.614 150.479 56.1858 150.123 55.7291 149.796C54.0603 148.601 52.4438 147.324 50.7015 146.246C47.895 144.509 45.0233 142.873 42.1451 141.251C36.8722 138.28 31.7178 135.137 26.9218 131.445C22.3059 127.892 18.1853 123.875 14.9102 119.06C14.2219 118.049 13.5749 117.01 12.6872 115.643C12.9179 116.494 12.962 117.008 13.1881 117.426C13.8947 118.73 14.5959 120.048 15.4377 121.267C16.67 123.052 18.087 124.713 19.311 126.502C21.1802 129.235 23.4638 131.596 25.8641 133.852C28.9205 136.726 32.4548 138.953 36.1545 140.912C42.4916 144.267 48.8654 147.556 55.2273 150.866C55.5995 151.06 56.002 151.194 56.5359 151.416ZM26.953 47.9527C27.0624 47.1009 27.1525 46.6211 27.1809 46.1376C27.521 40.4273 26.9337 34.8186 25.2695 29.3288C24.5132 26.8351 23.5042 24.4639 22.0173 22.2959C21.5395 21.5993 20.9844 21.1384 20.1574 20.8763C18.1265 20.2322 16.2215 19.3197 14.5242 18.0162C14.3561 17.8874 14.0987 17.871 13.586 17.7077C14.5325 19.0104 15.3108 20.0454 16.0497 21.1076C18.1734 24.1564 20.2447 27.2333 21.6636 30.6885C23.6733 35.5842 24.9736 40.6278 25.0517 45.9389C25.0545 46.1194 25.1032 46.3 25.1445 46.5748C25.6288 46.944 26.1563 47.3459 26.953 47.9527ZM52.0891 94.8795C52.2931 93.4961 52.0312 92.5482 51.7436 91.613C50.7447 88.3682 48.9389 85.558 46.795 82.9618C43.8415 79.3842 40.2567 76.5068 36.2078 74.2291C33.6044 72.765 30.9073 71.4596 28.2267 70.1334C25.0986 68.5859 21.9429 67.0919 18.7964 65.5788C18.5382 65.4545 18.2644 65.3629 17.7442 65.1543C18.0944 66.0886 18.6329 66.6138 18.9214 67.2579C19.5399 68.6385 20.6463 69.5121 21.9484 70.1625C23.62 70.9979 25.3127 71.7944 27.0201 72.5573C29.4682 73.6512 31.9797 74.6155 34.391 75.7829C41.4247 79.1882 46.5304 84.5511 50.2439 91.2801C50.8375 92.355 51.3668 93.4662 52.0891 94.8795ZM49.0474 73.2194C49.0943 72.8838 49.1512 72.7097 49.1374 72.5418C48.8406 69.0168 49.0832 65.5171 49.6162 62.0284C49.8864 60.2595 50.163 58.4897 50.3799 56.7136C50.8853 52.589 50.9055 48.4652 50.1731 44.3624C50.0233 43.5224 49.7495 42.6915 49.4297 41.8968C48.5539 39.7198 47.6662 37.5445 46.6995 35.4064C46.1472 34.1864 45.7998 32.8447 44.7789 31.7426C44.8156 31.973 44.811 32.1009 44.857 32.2088C46.9457 37.1381 48.2562 42.2533 48.6899 47.5853C49.0713 52.2805 48.8121 56.954 48.2589 61.6202C48.0264 63.5814 47.7976 65.5425 47.5624 67.5028C47.328 69.4513 47.4677 71.3208 48.7303 72.9555C48.7643 73.0026 48.8195 73.0326 49.0474 73.2194Z" fill="url(#paint0_linear_83_2)"/>
<path d="M596.709 719C596.443 718.241 596.308 717.905 596.207 717.56C594.992 713.42 593.022 709.66 590.42 706.206C587.954 702.93 584.819 700.588 580.822 699.454C579.26 699.012 577.675 698.644 576.092 698.279C573.838 697.759 571.563 697.323 569.322 696.757C567.75 696.359 566.201 695.85 564.67 695.313C559.65 693.552 556.263 690.134 554.269 685.289C553.164 682.602 552.037 679.922 550.819 677.283C549.164 673.698 546.588 670.9 543.106 668.941C542.128 668.39 541.153 667.835 540.166 667.301C536.152 665.129 533.372 661.914 531.837 657.664C530.956 655.223 530.111 652.769 529.288 650.308C528.226 647.14 527.046 644.029 525.518 641.04C523.321 636.74 520.238 633.265 516.07 630.754C514.789 629.983 513.489 629.238 512.159 628.555C506.085 625.436 500.912 621.193 496.417 616.146C492.85 612.143 490.889 607.378 490.045 602.141C489.448 598.435 489.585 594.745 490.435 591.1C491.095 588.273 491.889 585.476 492.648 582.673C493.537 579.392 494.472 576.122 495.347 572.838C495.681 571.585 495.945 570.311 496.173 569.035C496.81 565.491 496.173 562.147 494.383 559.03C493.458 557.419 492.388 555.89 491.46 554.281C490.533 552.674 489.623 551.049 488.847 549.369C487.75 546.997 487.599 544.495 488.068 541.932C488.38 540.233 488.641 538.521 488.841 536.805C489.309 532.797 488.091 529.255 485.706 526.042C482.648 521.924 478.766 518.794 474.142 516.545C472.739 515.863 471.335 515.178 469.893 514.585C467.285 513.513 464.597 512.7 461.772 512.394C459.845 512.185 457.92 511.944 455.99 511.769C454.94 511.675 453.873 511.547 452.861 512.051C452.562 512.201 452.185 512.085 452.066 511.774C451.972 511.525 451.971 511.135 452.112 510.931C452.304 510.652 452.642 510.386 452.968 510.301C453.503 510.161 454.085 510.083 454.633 510.131C457.622 510.393 460.627 510.574 463.587 511.028C466.881 511.533 469.979 512.758 472.962 514.21C475.317 515.357 477.621 516.603 479.949 517.803C482 518.862 484.018 519.986 486.111 520.955C489.188 522.381 492.447 523.249 495.821 523.681C497.76 523.93 499.699 523.915 501.607 523.499C503.497 523.087 505.374 522.611 507.237 522.093C510.297 521.243 512.72 519.436 514.66 517C515.662 515.741 516.544 514.388 517.477 513.075C518.59 511.51 519.639 509.896 520.83 508.392C521.632 507.38 522.564 506.439 523.561 505.612C525.229 504.228 527.207 503.672 529.35 504.192C530.615 504.499 531.868 504.948 533.039 505.512C536.627 507.241 539.643 509.722 542.279 512.664C544.35 514.976 546.405 517.301 548.497 519.594C550.869 522.196 553.816 523.865 557.263 524.662C558.968 525.056 560.686 525.397 562.397 525.767C567.063 526.777 571.257 528.767 574.951 531.753C577.744 534.012 579.939 536.746 581.567 539.944C583.745 544.225 585.215 548.73 586.141 553.418C586.844 556.984 586.767 560.535 585.928 564.079C585.257 566.912 584.336 569.665 583.343 572.398C582.815 573.851 582.244 575.291 581.766 576.759C581.366 577.991 581 579.244 580.747 580.512C580.195 583.28 580.649 585.913 582.032 588.389C583.396 590.831 585.03 593.09 586.782 595.271C589.147 598.217 590.813 601.494 591.723 605.156C592.543 608.455 592.586 611.75 591.892 615.069C591.282 617.993 590.193 620.748 588.902 623.434C587.669 625.999 586.412 628.554 585.219 631.138C584.571 632.541 584.002 633.983 583.464 635.431C583.077 636.473 582.754 637.542 582.479 638.619C581.08 644.076 582.536 648.905 586.029 653.165C587.676 655.174 589.608 656.954 591.408 658.841C596.698 664.386 600.101 670.85 601.284 678.425C601.857 682.1 602.132 685.782 601.938 689.496C601.549 696.98 600.298 704.346 598.854 711.687C598.448 713.751 597.999 715.801 597.224 717.767C597.111 718.048 596.991 718.325 596.709 719ZM506.772 534.398C506.912 534.769 506.995 535.046 507.12 535.303C508.683 538.535 509.407 541.945 509.355 545.521C509.279 550.699 508.394 555.726 506.322 560.498C505.314 562.82 504.203 565.108 502.971 567.32C500.984 570.887 498.859 574.378 496.793 577.902C495.662 579.83 494.676 581.826 493.994 583.954C493.031 586.958 492.163 589.991 491.677 593.109C490.567 600.23 491.885 606.881 495.917 612.918C497.75 615.663 500.159 617.928 502.686 620.058C502.77 620.128 502.907 620.139 503.092 620.204C503.123 619.951 503.194 619.714 503.177 619.482C503.059 617.928 503.269 616.401 503.543 614.879C504.16 611.468 505.058 608.129 506.237 604.867C507.903 600.259 510.068 595.877 512.631 591.699C515.123 587.638 517.73 583.645 520.319 579.642C522.237 576.675 524.039 573.645 525.612 570.485C527.59 566.512 528.791 562.312 529.331 557.925C529.574 555.955 529.597 553.975 529.253 552.02C528.515 547.829 526.595 544.438 522.84 542.041C517.976 538.938 512.767 536.58 507.443 534.418C507.297 534.358 507.109 534.404 506.772 534.398ZM534.559 552.822C534.382 553.155 534.33 553.208 534.331 553.26C534.332 553.506 534.334 553.754 534.359 553.998C535.09 561.093 533.821 567.893 531.228 574.491C529.869 577.948 528.174 581.249 526.432 584.53C524.199 588.738 522.004 592.966 519.874 597.225C518.184 600.604 516.82 604.122 515.645 607.71C514.778 610.359 514.119 613.056 513.725 615.815C513.223 619.345 513.428 622.826 514.401 626.269C514.789 627.639 515.494 628.628 516.803 629.375C520.382 631.414 523.223 634.239 525.409 637.72C526.665 639.721 527.76 641.792 528.653 643.971C528.993 644.801 528.997 644.799 529.625 645.35C529.626 645.148 529.637 644.966 529.626 644.785C529.022 634.848 531.301 625.551 535.978 616.78C537.669 613.61 539.629 610.604 541.581 607.588C543.127 605.199 544.623 602.775 546.039 600.31C547.183 598.319 547.976 596.167 548.56 593.945C548.91 592.616 549.063 591.284 548.848 589.914C548.34 586.684 547.968 583.429 547.335 580.224C545.501 570.946 541.777 562.453 536.166 554.78C535.697 554.139 535.158 553.549 534.559 552.822ZM581.393 648.729C581.227 647.998 581.173 647.636 581.062 647.292C580.205 644.639 580.123 641.942 580.71 639.245C581.05 637.681 581.484 636.119 582.07 634.63C583.064 632.101 584.121 629.588 585.332 627.155C585.957 625.899 585.91 624.823 585.364 623.633C584.295 621.304 582.846 619.236 581.067 617.383C578.542 614.754 575.59 612.7 572.279 611.166C569.904 610.066 567.466 609.096 565.075 608.026C562.627 606.932 560.176 605.841 557.779 604.646C555.541 603.53 553.487 602.121 551.691 600.372C551.524 600.21 551.321 600.084 550.996 599.835C550.92 600.322 550.84 600.669 550.816 601.018C550.657 603.358 550.494 605.698 550.362 608.039C550.145 611.921 549.956 615.805 549.746 619.687C549.7 620.559 549.775 621.397 550.095 622.229C551.455 625.764 553.14 629.111 555.48 632.139C559.189 636.94 563.679 640.735 569.298 643.213C573.23 644.947 577.313 646.348 581.393 648.729ZM526.721 542.4C526.678 542.489 526.635 542.579 526.591 542.669C526.819 542.862 527.049 543.052 527.273 543.249C528.722 544.516 530.222 545.731 531.604 547.065C534.566 549.923 537.044 553.182 539.365 556.554C539.94 557.391 540.618 558.056 541.462 558.622C543.857 560.228 546.412 561.506 549.143 562.44C550.914 563.046 552.694 563.63 554.482 564.19C559.437 565.744 564.264 567.595 568.865 570.006C572.472 571.896 575.858 574.078 578.745 576.961C578.989 577.205 579.322 577.363 579.609 577.557C579.748 577.382 579.857 577.297 579.895 577.188C581.056 573.929 582.296 570.693 583.334 567.396C583.999 565.283 584.372 563.08 584.867 560.916C585.203 559.442 584.807 558.149 583.999 556.88C581.579 553.08 578.321 550.189 574.384 548.002C570.22 545.689 565.7 544.588 560.979 544.159C556.171 543.724 551.366 543.88 546.556 544.132C544.061 544.264 541.561 544.349 539.063 544.366C535.413 544.392 531.838 543.836 528.336 542.819C527.803 542.664 527.26 542.538 526.721 542.4ZM586.456 624.21C586.719 623.998 586.851 623.942 586.901 623.845C588.233 621.25 589.381 618.585 590.093 615.753C590.593 613.765 590.883 611.748 590.757 609.699C590.709 608.91 590.583 608.09 590.299 607.358C589.853 606.21 589.289 605.098 588.695 604.014C585.405 598 580.848 593.061 575.461 588.817C570.361 584.799 564.85 581.412 559.183 578.251C555.101 575.974 551.014 573.702 547.222 570.96C547.079 570.856 546.897 570.802 546.586 570.656C546.624 571.046 546.608 571.34 546.684 571.61C547.242 573.569 547.906 575.503 548.372 577.482C549.834 583.69 550.754 589.979 550.804 596.361C550.816 597.852 551.278 599.003 552.375 599.941C553.27 600.708 554.166 601.483 555.129 602.161C557.48 603.818 560.063 605.072 562.705 606.204C565.402 607.359 568.115 608.474 570.807 609.64C573.044 610.609 575.204 611.721 577.2 613.125C580.928 615.749 584.013 618.917 585.896 623.108C586.045 623.437 586.225 623.756 586.456 624.21ZM597.665 708.966C597.791 708.499 597.93 708.107 597.999 707.704C598.334 705.757 598.668 703.809 598.971 701.857C599.654 697.463 600.226 693.057 600.374 688.606C600.479 685.45 600.201 682.327 599.808 679.197C599.514 676.848 598.619 674.795 597.23 672.932C596.344 671.742 595.4 670.581 594.377 669.504C590.668 665.596 586.323 662.499 581.582 659.932C578.787 658.419 575.973 656.94 573.156 655.468C569.672 653.647 566.302 651.639 563.026 649.48C560.266 647.659 557.665 645.64 555.431 643.196C554.599 642.286 553.787 641.359 552.966 640.44C552.885 640.991 552.957 641.455 553.134 641.876C555.47 647.461 558.716 652.5 562.699 657.062C565.679 660.477 569.028 663.547 572.423 666.553C575.306 669.105 578.308 671.527 581.215 674.053C584.177 676.629 586.883 679.453 589.212 682.604C592.053 686.446 593.738 690.824 595.087 695.342C596.277 699.324 596.917 703.402 597.24 707.535C597.277 707.991 597.117 708.524 597.665 708.966ZM510.431 533.566C510.53 533.778 510.551 533.934 510.628 533.967C512.115 534.61 513.571 535.356 515.11 535.848C519.113 537.13 523.227 537.911 527.442 538.066C532.639 538.257 537.813 538.037 542.953 537.164C545.908 536.662 548.869 536.165 551.846 535.824C561.486 534.72 570.675 536.13 579.239 540.822C579.483 540.955 579.76 541.029 580.052 541.142C580.086 540.897 580.15 540.761 580.108 540.681C579.076 538.696 577.871 536.824 576.315 535.193C572.563 531.262 567.978 528.747 562.687 527.465C561.108 527.082 559.504 526.804 557.919 526.449C555.714 525.956 553.589 525.253 551.599 524.161C550.955 523.807 550.227 523.564 549.508 523.389C546.017 522.542 542.556 522.862 539.12 523.733C536.327 524.441 533.652 525.478 531.025 526.635C527.885 528.016 524.775 529.465 521.618 530.808C518.391 532.18 515.057 533.207 511.513 533.419C511.163 533.44 510.816 533.513 510.431 533.566ZM487.468 525.142C487.388 525.229 487.308 525.315 487.229 525.402C487.396 525.659 487.56 525.917 487.729 526.172C490.017 529.61 490.939 533.367 490.389 537.452C490.174 539.041 489.936 540.629 489.645 542.206C489.207 544.584 489.404 546.879 490.451 549.075C490.929 550.077 491.421 551.079 491.989 552.033C492.876 553.522 493.876 554.946 494.75 556.442C495.498 557.722 496.225 559.028 496.805 560.388C498.021 563.244 498.328 566.239 497.745 569.282C497.338 571.402 496.783 573.494 496.3 575.6C496.185 576.103 496.097 576.61 495.997 577.116C496.468 576.863 496.712 576.528 496.921 576.173C498.71 573.134 500.505 570.099 502.27 567.046C502.951 565.868 503.584 564.662 504.193 563.446C506.978 557.887 508.49 552.015 508.594 545.799C508.628 543.752 508.447 541.731 507.931 539.747C507.432 537.829 506.794 535.964 505.658 534.3C505.266 533.725 504.8 533.279 504.116 533.019C502.541 532.423 500.998 531.746 499.426 531.141C495.629 529.681 491.985 527.928 488.566 525.729C488.218 525.505 487.835 525.336 487.468 525.142ZM513.796 627.565C513.883 627.273 513.922 627.214 513.911 627.167C513.852 626.929 513.785 626.692 513.713 626.457C512.576 622.721 512.438 618.928 513.057 615.092C513.482 612.464 514.117 609.885 514.954 607.356C516.12 603.83 517.454 600.364 519.121 597.04C521.285 592.726 523.55 588.462 525.737 584.159C527.138 581.403 528.54 578.641 529.831 575.833C531.337 572.56 532.354 569.119 533.055 565.592C533.891 561.376 534.003 557.137 533.452 552.873C533.278 551.522 532.721 550.405 531.758 549.457C530.917 548.629 530.095 547.782 529.235 546.972C529.011 546.761 528.683 546.658 528.122 546.351C530.154 550.223 530.558 554.048 530.09 557.987C529.561 562.438 528.348 566.702 526.333 570.732C524.949 573.502 523.444 576.203 521.751 578.803C519.554 582.177 517.383 585.567 515.206 588.953C512.655 592.919 510.373 597.03 508.471 601.34C506.412 606.007 504.982 610.858 504.152 615.88C503.929 617.225 503.815 618.574 504.005 619.937C504.147 620.959 504.565 621.76 505.436 622.422C507.673 624.123 510.041 625.61 512.518 626.937C512.896 627.141 513.286 627.315 513.796 627.565ZM559.056 655.245C558.902 655.582 558.807 655.69 558.813 655.792C558.94 658.457 558.523 661.081 558.235 663.717C557.988 665.984 557.719 668.257 557.64 670.533C557.467 675.539 558.339 680.365 560.637 684.874C562.7 688.92 565.611 692.243 569.493 694.703C570.393 695.274 571.358 695.684 572.42 695.892C574.381 696.278 576.332 696.711 578.29 697.11C578.567 697.167 578.902 697.337 579.165 696.861C579.019 696.597 578.861 696.275 578.67 695.974C577.706 694.448 576.975 692.819 576.402 691.114C574.289 684.822 573.591 678.369 574.142 671.774C574.182 671.289 574.203 670.801 574.235 670.316C568.928 665.562 563.618 660.885 559.056 655.245ZM538.096 663.811C537.865 662.993 537.717 662.53 537.606 662.06C537.239 660.5 536.74 658.955 536.547 657.373C535.226 646.516 536.728 636.076 541.525 626.17C542.547 624.058 543.721 622.014 544.878 619.969C546.099 617.81 547.264 615.627 548.037 613.269C548.285 612.513 548.482 611.718 548.545 610.929C548.793 607.853 549.008 604.775 549.172 601.693C549.26 600.031 549.226 598.362 549.23 596.697C549.231 596.434 549.317 596.064 548.849 596.044C548.777 596.151 548.684 596.245 548.644 596.357C547.365 599.865 545.498 603.068 543.448 606.178C542.221 608.038 540.987 609.894 539.784 611.77C535.739 618.081 532.634 624.776 531.234 632.171C529.603 640.787 529.828 649.24 533.477 657.393C533.982 658.518 534.52 659.641 535.171 660.688C535.85 661.782 536.591 662.866 538.096 663.811ZM543.065 515.935C541.99 514.753 541.056 513.684 540.077 512.657C537.785 510.254 535.164 508.27 532.148 506.835C531.198 506.384 530.183 506.034 529.164 505.76C527.772 505.386 526.457 505.659 525.219 506.424C523.811 507.293 522.701 508.455 521.746 509.759C520.575 511.357 519.495 513.021 518.345 514.635C517.411 515.945 516.49 517.27 515.46 518.505C513.596 520.742 511.247 522.332 508.488 523.341C502.779 525.431 496.977 526.118 491.013 524.527C490.773 524.462 490.526 524.413 490.279 524.388C490.184 524.378 490.08 524.456 489.979 524.494C490.029 524.605 490.046 524.752 490.127 524.804C492.697 526.495 495.399 527.82 498.518 528.289C501.885 528.797 505.247 529.064 508.585 528.347C510.897 527.85 513.176 527.156 515.414 526.39C519.687 524.929 523.55 522.616 527.52 520.527C529.503 519.484 531.51 518.461 533.586 517.623C536.318 516.52 539.164 515.803 542.173 516.074C542.397 516.096 542.631 516.007 543.065 515.935ZM547.897 623.965C547.713 624.192 547.57 624.306 547.511 624.453C546.206 627.656 544.91 630.864 543.612 634.072C541.418 639.489 540.599 645.13 540.829 650.933C541.057 656.669 542.319 662.162 544.85 667.355C545.187 668.046 545.591 668.626 546.208 669.082C547.771 670.235 549.094 671.621 550.239 673.178C550.29 673.248 550.442 673.245 550.547 673.275C550.594 673.241 550.678 673.208 550.68 673.171C550.7 672.87 550.738 672.565 550.709 672.267C550.346 668.44 550.471 664.629 551.038 660.828C551.284 659.18 551.585 657.537 551.752 655.881C551.967 653.736 552.162 651.581 552.205 649.427C552.269 646.136 551.72 642.929 550.629 639.802C550.081 638.232 549.664 636.612 549.287 634.993C548.573 631.92 548.241 628.793 548.124 625.643C548.105 625.121 548.194 624.57 547.897 623.965ZM541.813 559.859C541.743 559.944 541.674 560.03 541.604 560.116C542.409 561.709 543.275 563.276 543.991 564.908C544.394 565.828 544.981 566.424 545.879 566.831C546.786 567.242 547.657 567.733 548.541 568.194C554.452 571.278 560.381 574.331 566.268 577.46C570.91 579.929 575.241 582.832 578.821 586.719C578.951 586.86 579.191 586.903 579.429 587.016C579.25 585.535 578.971 584.198 578.96 582.86C578.949 581.457 579.196 580.051 579.336 578.598C579.149 578.379 578.967 578.128 578.747 577.917C576.499 575.76 574.063 573.845 571.36 572.263C566.717 569.544 561.813 567.399 556.697 565.713C554.266 564.912 551.823 564.147 549.397 563.331C547.024 562.535 544.734 561.551 542.599 560.242C542.353 560.087 542.076 559.984 541.813 559.859ZM577.808 673.386C577.799 674.089 577.767 674.512 577.792 674.932C578.014 678.653 578.935 682.231 580.143 685.741C581.48 689.623 583.43 693.209 585.902 696.487C588.554 700.003 590.795 703.781 593.263 707.413C593.921 708.382 594.435 709.446 595.021 710.464C595.157 710.7 595.317 710.924 595.479 711.172C595.621 711.038 595.697 711.002 595.703 710.955C595.739 710.714 595.784 710.471 595.777 710.23C595.56 703.522 594.342 697.006 591.827 690.756C590.812 688.233 589.61 685.796 587.966 683.594C586.145 681.156 584.1 678.913 581.893 676.817C580.688 675.674 579.507 674.486 577.808 673.386ZM597.702 672.119C597.787 672.081 597.872 672.044 597.957 672.007C597.661 671.269 597.383 670.523 597.064 669.795C595.788 666.878 593.97 664.307 591.948 661.849C589.112 658.399 585.8 655.535 581.768 653.531C579.255 652.282 576.728 651.056 574.173 649.893C570.99 648.444 567.859 646.904 564.853 645.117C562.217 643.549 559.782 641.718 557.55 639.638C555.173 637.422 553.155 634.913 551.548 632.089C551.207 631.487 550.955 630.793 550.159 630.143C550.228 631.831 550.605 633.188 550.81 634.569C551.053 636.211 551.776 637.597 552.777 638.906C555.782 642.837 559.324 646.192 563.499 648.895C567.058 651.198 570.707 653.343 574.473 655.304C577.68 656.975 580.864 658.693 584.013 660.469C588.057 662.747 591.657 665.607 594.879 668.921C595.869 669.939 596.764 671.05 597.702 672.119ZM500.433 529.401C500.398 529.498 500.363 529.595 500.327 529.693C500.641 529.847 500.948 530.02 501.271 530.154C502.828 530.796 504.409 531.389 505.946 532.075C507.119 532.597 508.323 532.778 509.593 532.759C512.491 532.714 515.307 532.238 518.058 531.336C521.688 530.146 525.09 528.439 528.565 526.896C531.871 525.428 535.185 523.988 538.705 523.07C541.695 522.29 544.709 521.9 547.797 522.333C548.095 522.375 548.403 522.345 548.921 522.351C548.451 521.85 548.119 521.498 547.788 521.145C546.854 520.15 545.874 519.192 545.001 518.147C544.401 517.43 543.691 517.045 542.789 516.898C541.413 516.673 540.046 516.734 538.683 516.967C536.203 517.39 533.823 518.157 531.584 519.271C528.849 520.632 526.148 522.062 523.479 523.544C520.415 525.245 517.208 526.612 513.896 527.742C509.777 529.149 505.557 529.891 501.177 529.407C500.933 529.38 500.682 529.402 500.433 529.401ZM525.922 540.976C529.938 542.665 534.074 543.576 538.369 543.59C540.992 543.599 543.615 543.475 546.239 543.407C549.611 543.321 552.984 543.162 556.357 543.162C559.865 543.162 563.362 543.476 566.775 544.311C574.013 546.08 580.024 549.681 584.225 555.92C584.337 556.087 584.399 556.421 584.84 556.239C584.836 555.972 584.869 555.672 584.82 555.385C584.615 554.169 584.362 552.96 584.171 551.742C583.96 550.393 583.25 549.351 582.27 548.431C579.941 546.246 577.355 544.436 574.443 543.084C570.311 541.163 565.944 540.207 561.399 539.974C557.77 539.788 554.15 539.932 550.538 540.277C547.429 540.575 544.324 540.916 541.217 541.243C536.408 541.751 531.607 541.659 526.812 541.073C526.515 541.038 526.219 541.008 525.922 540.976ZM547.913 615.995C546.987 617.671 546.056 619.345 545.136 621.024C544.245 622.652 543.315 624.262 542.489 625.923C537.588 635.792 536.01 646.211 537.262 657.09C537.533 659.434 538.2 661.68 538.942 663.912C539.169 664.593 539.541 665.111 540.184 665.46C541.169 665.996 542.133 666.571 543.12 667.102C543.304 667.201 543.557 667.174 543.874 667.218C543.213 665.469 542.505 663.891 542.013 662.249C539.212 652.915 539.223 643.623 542.671 634.433C543.691 631.714 544.903 629.064 545.931 626.347C546.673 624.385 547.296 622.375 547.903 620.367C548.333 618.946 548.223 617.475 547.913 615.995ZM521.749 538.309C521.728 538.416 521.707 538.521 521.686 538.627C521.951 538.765 522.205 538.924 522.48 539.036C524.52 539.866 526.638 540.367 528.84 540.549C533.217 540.911 537.581 540.867 541.954 540.418C546.555 539.946 551.162 539.52 555.777 539.207C559.279 538.97 562.785 539.143 566.251 539.755C572.038 540.778 577.244 543.033 581.685 546.898C581.992 547.165 582.314 547.413 582.817 547.823C582.79 547.357 582.827 547.113 582.755 546.905C582.475 546.087 582.103 545.296 581.872 544.465C581.571 543.376 580.923 542.616 579.937 542.09C579.441 541.826 578.973 541.515 578.477 541.254C574.413 539.118 570.127 537.62 565.578 536.867C560.916 536.095 556.237 536.001 551.557 536.605C548.582 536.989 545.624 537.497 542.661 537.965C536.013 539.015 529.348 539.229 522.659 538.376C522.358 538.338 522.052 538.331 521.749 538.309ZM567.303 694.185C567.033 693.943 566.768 693.695 566.493 693.458C561.65 689.295 558.676 684.074 557.456 677.865C556.735 674.199 556.694 670.51 557.102 666.81C557.352 664.541 557.637 662.275 557.898 660.008C558.096 658.286 558.121 656.562 557.916 654.838C557.79 653.779 557.523 652.784 556.843 651.923C556.537 651.534 556.299 651.093 556.003 650.696C555.88 650.533 555.684 650.423 555.343 650.143C554.912 654.112 554.459 657.838 554.12 661.574C553.941 663.537 553.902 665.518 553.906 667.49C553.917 672.079 554.557 676.586 555.868 680.996C556.805 684.143 558.005 687.183 559.718 690.004C560.066 690.578 560.449 691.2 560.975 691.589C562.838 692.965 564.935 693.885 567.303 694.185ZM545.464 567.584C545.386 568.521 545.814 568.877 546.271 569.204C547.94 570.399 549.556 571.676 551.299 572.754C554.105 574.491 556.977 576.127 559.855 577.749C565.128 580.72 570.282 583.863 575.078 587.555C579.694 591.108 583.815 595.125 587.09 599.94C587.778 600.951 588.425 601.99 589.313 603.357C589.082 602.506 589.038 601.992 588.812 601.574C588.105 600.27 587.404 598.952 586.562 597.733C585.33 595.948 583.913 594.287 582.689 592.498C580.82 589.764 578.536 587.404 576.136 585.148C573.079 582.274 569.545 580.047 565.846 578.088C559.508 574.733 553.135 571.444 546.773 568.134C546.401 567.94 545.998 567.806 545.464 567.584ZM575.047 671.047C574.938 671.899 574.848 672.379 574.819 672.862C574.479 678.573 575.066 684.181 576.73 689.671C577.487 692.165 578.496 694.536 579.983 696.704C580.461 697.401 581.016 697.862 581.843 698.124C583.874 698.768 585.778 699.68 587.476 700.984C587.644 701.113 587.901 701.129 588.414 701.292C587.468 699.99 586.689 698.955 585.95 697.892C583.827 694.844 581.755 691.767 580.336 688.311C578.327 683.416 577.026 678.372 576.948 673.061C576.946 672.881 576.897 672.7 576.855 672.425C576.371 672.056 575.844 671.654 575.047 671.047ZM549.911 624.121C549.707 625.504 549.969 626.452 550.256 627.387C551.255 630.632 553.061 633.442 555.205 636.038C558.158 639.616 561.743 642.493 565.792 644.771C568.396 646.235 571.093 647.54 573.773 648.867C576.901 650.414 580.057 651.908 583.204 653.421C583.462 653.545 583.736 653.637 584.256 653.846C583.906 652.911 583.367 652.386 583.079 651.742C582.46 650.361 581.354 649.488 580.052 648.838C578.38 648.002 576.687 647.206 574.98 646.443C572.532 645.349 570.02 644.384 567.609 643.217C560.575 639.812 555.47 634.449 551.756 627.72C551.163 626.645 550.633 625.534 549.911 624.121ZM552.953 645.781C552.906 646.116 552.849 646.29 552.863 646.458C553.159 649.983 552.917 653.483 552.384 656.972C552.114 658.74 551.837 660.51 551.62 662.286C551.115 666.411 551.094 670.535 551.827 674.638C551.977 675.478 552.251 676.309 552.57 677.103C553.446 679.28 554.334 681.456 555.301 683.594C555.853 684.814 556.2 686.155 557.221 687.257C557.184 687.027 557.189 686.899 557.143 686.791C555.054 681.862 553.744 676.747 553.31 671.415C552.929 666.719 553.188 662.046 553.741 657.38C553.974 655.419 554.202 653.457 554.438 651.497C554.672 649.549 554.532 647.679 553.27 646.045C553.236 645.997 553.181 645.967 552.953 645.781Z" fill="url(#paint1_linear_83_2)"/>
<defs>
<linearGradient id="paint0_linear_83_2" x1="497.358" y1="676.328" x2="564.862" y2="519.162" gradientUnits="userSpaceOnUse">
<stop stop-color="#A5845A"/>
<stop offset="0.0919" stop-color="#BA9D71"/>
<stop offset="0.239" stop-color="#D8BF91"/>
<stop offset="0.3187" stop-color="#E3CC9D"/>
<stop offset="0.3248" stop-color="#E1CA9B"/>
<stop offset="0.4975" stop-color="#B39864"/>
<stop offset="0.6262" stop-color="#967941"/>
<stop offset="0.6957" stop-color="#8B6D34"/>
<stop offset="0.7947" stop-color="#8E6F38"/>
<stop offset="0.893" stop-color="#967744"/>
<stop offset="0.9907" stop-color="#A38358"/>
<stop offset="1" stop-color="#A5845A"/>
</linearGradient>
<linearGradient id="paint1_linear_83_2" x1="497.358" y1="676.328" x2="564.862" y2="519.162" gradientUnits="userSpaceOnUse">
<stop stop-color="#A5845A"/>
<stop offset="0.0919" stop-color="#BA9D71"/>
<stop offset="0.239" stop-color="#D8BF91"/>
<stop offset="0.3187" stop-color="#E3CC9D"/>
<stop offset="0.3248" stop-color="#E1CA9B"/>
<stop offset="0.4975" stop-color="#B39864"/>
<stop offset="0.6262" stop-color="#967941"/>
<stop offset="0.6957" stop-color="#8B6D34"/>
<stop offset="0.7947" stop-color="#8E6F38"/>
<stop offset="0.893" stop-color="#967744"/>
<stop offset="0.9907" stop-color="#A38358"/>
<stop offset="1" stop-color="#A5845A"/>
</linearGradient>
</defs>
</svg>
