<svg width="30" height="107" viewBox="0 0 30 107" fill="none" xmlns="http://www.w3.org/2000/svg">
<g filter="url(#filter0_d_7_50)">
<path d="M15 106.553L3.45299 95.0059L15 83.4589L26.547 95.0059L15 106.553ZM13 9.00005L13 7.00005H17V9.00005H13ZM13 95.0059V90.7056H17V95.0059H13ZM13 82.105L13 73.5044H17V82.105H13ZM13 64.9038V56.3032H17L17 64.9038H13ZM13 47.7027V39.1021H17V47.7027H13ZM13 30.5015V21.9009H17V30.5015H13ZM13 13.3003V9.00005H17V13.3003H13Z" fill="#2A2A2A"/>
</g>
<defs>
<filter id="filter0_d_7_50" x="0.0530028" y="0.6" width="29.894" height="106.353" filterUnits="userSpaceOnUse" color-interpolation-filters="sRGB">
<feFlood flood-opacity="0" result="BackgroundImageFix"/>
<feColorMatrix in="SourceAlpha" type="matrix" values="0 0 0 0 0 0 0 0 0 0 0 0 0 0 0 0 0 0 127 0" result="hardAlpha"/>
<feOffset dy="-3"/>
<feGaussianBlur stdDeviation="1.7"/>
<feComposite in2="hardAlpha" operator="out"/>
<feColorMatrix type="matrix" values="0 0 0 0 0.165174 0 0 0 0 0.370522 0 0 0 0 0.591667 0 0 0 0.57 0"/>
<feBlend mode="normal" in2="BackgroundImageFix" result="effect1_dropShadow_7_50"/>
<feBlend mode="normal" in="SourceGraphic" in2="effect1_dropShadow_7_50" result="shape"/>
</filter>
</defs>
</svg>
