<svg width="430" height="85" viewBox="0 0 430 85" fill="none" xmlns="http://www.w3.org/2000/svg">
<path d="M0 30C0 13.4315 13.4315 0 30 0H400C416.569 0 430 13.4315 430 30V55C430 71.5685 416.569 85 400 85H30C13.4314 85 0 71.5685 0 55V30Z" fill="black"/>
<path d="M0 30C0 13.4315 13.4315 0 30 0H400C416.569 0 430 13.4315 430 30V55C430 71.5685 416.569 85 400 85H30C13.4314 85 0 71.5685 0 55V30Z" fill="url(#paint0_linear_102_3)"/>
<path d="M160.811 51.84L161.851 48.56C163.478 48.56 165.198 48.4667 167.011 48.28C168.824 48.0667 170.624 47.7067 172.411 47.2C174.224 46.6667 175.944 45.9467 177.571 45.04C179.198 44.1333 180.624 42.9867 181.851 41.6L184.371 43.08C184.131 43.6933 183.971 44.1867 183.891 44.56C183.811 44.9067 183.771 45.2267 183.771 45.52C183.771 45.92 183.918 46.3067 184.211 46.68C184.504 47.0267 185.051 47.32 185.851 47.56C186.678 47.8 187.838 47.92 189.331 47.92C189.891 47.92 190.291 48.08 190.531 48.4C190.798 48.6933 190.931 49.0533 190.931 49.48C190.931 49.9067 190.744 50.3067 190.371 50.68C189.998 51.0267 189.518 51.2 188.931 51.2C187.224 51.2 185.718 51.0267 184.411 50.68C183.131 50.3067 182.171 49.7333 181.531 48.96C180.918 48.16 180.718 47.1333 180.931 45.88L181.651 46.12C180.584 47.08 179.304 47.92 177.811 48.64C176.344 49.3333 174.704 49.92 172.891 50.4C171.104 50.88 169.184 51.24 167.131 51.48C165.104 51.72 162.998 51.84 160.811 51.84ZM160.811 51.84C158.438 51.84 156.344 51.68 154.531 51.36C152.744 51.0667 151.251 50.6 150.051 49.96C148.851 49.32 147.944 48.4933 147.331 47.48C146.718 46.44 146.411 45.1867 146.411 43.72C146.411 43.0533 146.464 42.3733 146.571 41.68C146.678 40.96 146.811 40.24 146.971 39.52C147.158 38.8 147.344 38.1067 147.531 37.44L150.531 38.2C150.424 38.6 150.304 39.08 150.171 39.64C150.038 40.1733 149.918 40.72 149.811 41.28C149.731 41.84 149.691 42.3467 149.691 42.8C149.691 44.1867 150.038 45.3067 150.731 46.16C151.451 46.9867 152.691 47.6 154.451 48C156.211 48.3733 158.678 48.56 161.851 48.56L162.651 50.56L160.811 51.84ZM167.531 34.96C166.971 34.96 166.491 34.7733 166.091 34.4C165.718 34 165.531 33.5333 165.531 33C165.531 32.4667 165.718 32 166.091 31.6C166.491 31.2 166.971 31 167.531 31C168.064 31 168.518 31.2 168.891 31.6C169.291 32 169.491 32.4667 169.491 33C169.491 33.5333 169.291 34 168.891 34.4C168.518 34.7733 168.064 34.96 167.531 34.96ZM162.051 34.96C161.491 34.96 161.011 34.7733 160.611 34.4C160.238 34 160.051 33.5333 160.051 33C160.051 32.4667 160.238 32 160.611 31.6C161.011 31.2 161.491 31 162.051 31C162.584 31 163.038 31.2 163.411 31.6C163.811 32 164.011 32.4667 164.011 33C164.011 33.5333 163.811 34 163.411 34.4C163.038 34.7733 162.584 34.96 162.051 34.96Z" fill="white"/>
<path d="M188.922 51.2L189.322 47.92C190.629 47.92 191.669 47.84 192.442 47.68C193.215 47.52 193.775 47.2 194.122 46.72C194.469 46.2133 194.642 45.4667 194.642 44.48C194.642 43.8133 194.535 43.0267 194.322 42.12C194.109 41.1867 193.829 40.2 193.482 39.16C193.135 38.12 192.762 37.0933 192.362 36.08L195.602 34.88C195.949 35.7333 196.269 36.7067 196.562 37.8C196.882 38.8933 197.149 39.9733 197.362 41.04C197.575 42.1067 197.682 43.04 197.682 43.84C197.682 44.9067 197.562 45.8533 197.322 46.68C197.109 47.48 196.775 48.1733 196.322 48.76C195.869 49.32 195.282 49.7867 194.562 50.16C193.869 50.5067 193.055 50.7733 192.122 50.96C191.189 51.12 190.122 51.2 188.922 51.2ZM193.202 58.64C192.642 58.64 192.162 58.44 191.762 58.04C191.389 57.6667 191.202 57.2133 191.202 56.68C191.202 56.1467 191.389 55.68 191.762 55.28C192.162 54.88 192.642 54.68 193.202 54.68C193.735 54.68 194.189 54.88 194.562 55.28C194.962 55.68 195.162 56.1467 195.162 56.68C195.162 57.2133 194.962 57.6667 194.562 58.04C194.189 58.44 193.735 58.64 193.202 58.64Z" fill="white"/>
<path d="M201.984 60.2L201.264 56.92C202.864 56.7067 204.331 56.4 205.664 56C207.024 55.6267 208.184 55.08 209.144 54.36C210.131 53.64 210.891 52.6933 211.424 51.52C211.957 50.3467 212.224 48.88 212.224 47.12C212.224 45.3067 211.891 43.8 211.224 42.6C210.557 41.4 209.691 40.8 208.624 40.8C208.064 40.8 207.544 41.0133 207.064 41.44C206.584 41.8667 206.184 42.44 205.864 43.16C205.571 43.88 205.424 44.6667 205.424 45.52C205.424 46 205.531 46.4 205.744 46.72C205.957 47.0133 206.264 47.2533 206.664 47.44C207.091 47.6 207.624 47.72 208.264 47.8C208.904 47.88 209.651 47.92 210.504 47.92H218.944C219.504 47.92 219.904 48.08 220.144 48.4C220.411 48.6933 220.544 49.0533 220.544 49.48C220.544 49.9067 220.357 50.3067 219.984 50.68C219.611 51.0267 219.131 51.2 218.544 51.2H208.984C207.784 51.2 206.664 51.0267 205.624 50.68C204.611 50.3333 203.784 49.8 203.144 49.08C202.531 48.3333 202.224 47.36 202.224 46.16C202.224 45.04 202.397 43.9733 202.744 42.96C203.091 41.92 203.557 41 204.144 40.2C204.757 39.3733 205.464 38.72 206.264 38.24C207.091 37.76 207.984 37.52 208.944 37.52C210.171 37.52 211.264 37.88 212.224 38.6C213.184 39.32 213.944 40.4133 214.504 41.88C215.064 43.32 215.344 45.1467 215.344 47.36C215.344 49.84 214.837 51.9733 213.824 53.76C212.837 55.5733 211.344 57.0133 209.344 58.08C207.371 59.1467 204.917 59.8533 201.984 60.2Z" fill="white"/>
<path d="M218.531 51.2L218.931 47.92C220.238 47.92 221.278 47.84 222.051 47.68C222.825 47.52 223.385 47.2 223.731 46.72C224.078 46.2133 224.251 45.4667 224.251 44.48C224.251 43.8133 224.145 43.0267 223.931 42.12C223.718 41.1867 223.438 40.2 223.091 39.16C222.745 38.12 222.371 37.0933 221.971 36.08L225.211 34.88C225.558 35.7333 225.878 36.7067 226.171 37.8C226.491 38.8933 226.758 39.9733 226.971 41.04C227.185 42.1067 227.291 43.04 227.291 43.84C227.291 44.9067 227.171 45.8533 226.931 46.68C226.718 47.48 226.385 48.1733 225.931 48.76C225.478 49.32 224.891 49.7867 224.171 50.16C223.478 50.5067 222.665 50.7733 221.731 50.96C220.798 51.12 219.731 51.2 218.531 51.2ZM223.651 30.72C223.091 30.72 222.611 30.5333 222.211 30.16C221.838 29.76 221.651 29.2933 221.651 28.76C221.651 28.2267 221.838 27.76 222.211 27.36C222.611 26.96 223.091 26.76 223.651 26.76C224.185 26.76 224.638 26.96 225.011 27.36C225.411 27.76 225.611 28.2267 225.611 28.76C225.611 29.2933 225.411 29.76 225.011 30.16C224.638 30.5333 224.185 30.72 223.651 30.72Z" fill="white"/>
<path d="M242.843 60.2L242.123 56.92C243.723 56.7067 245.19 56.4 246.523 56C247.883 55.6267 249.043 55.08 250.003 54.36C250.99 53.64 251.75 52.6933 252.283 51.52C252.817 50.3467 253.083 48.88 253.083 47.12C253.083 46.2933 253.003 45.5067 252.843 44.76C252.683 43.9867 252.443 43.3067 252.123 42.72C251.803 42.1333 251.417 41.6667 250.963 41.32C250.537 40.9733 250.043 40.8 249.483 40.8C248.87 40.8 248.31 41.04 247.803 41.52C247.323 41.9733 246.937 42.56 246.643 43.28C246.377 44 246.243 44.72 246.243 45.44C246.243 46 246.35 46.4933 246.563 46.92C246.803 47.32 247.19 47.6267 247.723 47.84C248.257 48.0533 248.95 48.16 249.803 48.16C250.577 48.16 251.35 48.08 252.123 47.92C252.923 47.76 253.603 47.5467 254.163 47.28L254.323 50.08C253.683 50.5333 252.923 50.8533 252.043 51.04C251.19 51.2267 250.323 51.32 249.443 51.32C248.43 51.32 247.523 51.2133 246.723 51C245.95 50.7867 245.283 50.48 244.723 50.08C244.19 49.6533 243.777 49.12 243.483 48.48C243.217 47.84 243.083 47.0933 243.083 46.24C243.083 45.2267 243.243 44.2133 243.563 43.2C243.883 42.16 244.337 41.2133 244.923 40.36C245.51 39.5067 246.217 38.8267 247.043 38.32C247.87 37.7867 248.79 37.52 249.803 37.52C250.87 37.52 251.803 37.8 252.603 38.36C253.403 38.8933 254.07 39.6267 254.603 40.56C255.137 41.4933 255.537 42.5467 255.803 43.72C256.07 44.8933 256.203 46.1067 256.203 47.36C256.203 49.84 255.697 51.9733 254.683 53.76C253.697 55.5733 252.203 57.0133 250.203 58.08C248.23 59.1467 245.777 59.8533 242.843 60.2Z" fill="white"/>
<path d="M258.574 60.2L257.414 57.16C260.107 56.3067 262.174 55.28 263.614 54.08C265.081 52.9067 266.081 51.68 266.614 50.4C267.174 49.12 267.454 47.8933 267.454 46.72C267.454 45.9733 267.374 45.2533 267.214 44.56C267.054 43.8667 266.774 43.08 266.374 42.2C265.974 41.32 265.414 40.2267 264.694 38.92L267.614 37.44C268.627 39.1733 269.347 40.8133 269.774 42.36C270.227 43.9067 270.454 45.2667 270.454 46.44C270.454 48.12 270.174 49.64 269.614 51C269.081 52.36 268.361 53.56 267.454 54.6C266.574 55.6667 265.601 56.5733 264.534 57.32C263.494 58.0667 262.441 58.68 261.374 59.16C260.334 59.64 259.401 59.9867 258.574 60.2ZM265.494 32.84C264.934 32.84 264.454 32.6533 264.054 32.28C263.681 31.88 263.494 31.4133 263.494 30.88C263.494 30.3467 263.681 29.88 264.054 29.48C264.454 29.08 264.934 28.88 265.494 28.88C266.027 28.88 266.481 29.08 266.854 29.48C267.254 29.88 267.454 30.3467 267.454 30.88C267.454 31.4133 267.254 31.88 266.854 32.28C266.481 32.6533 266.027 32.84 265.494 32.84Z" fill="white"/>
<path d="M273.262 60.2L272.102 57.16C274.795 56.3067 276.862 55.28 278.302 54.08C279.768 52.9067 280.768 51.68 281.302 50.4C281.862 49.12 282.142 47.8933 282.142 46.72C282.142 45.9733 282.062 45.2533 281.902 44.56C281.742 43.8667 281.462 43.08 281.062 42.2C280.662 41.32 280.102 40.2267 279.382 38.92L282.302 37.44C283.315 39.1733 284.035 40.8133 284.462 42.36C284.915 43.9067 285.142 45.2667 285.142 46.44C285.142 48.12 284.862 49.64 284.302 51C283.768 52.36 283.048 53.56 282.142 54.6C281.262 55.6667 280.288 56.5733 279.222 57.32C278.182 58.0667 277.128 58.68 276.062 59.16C275.022 59.64 274.088 59.9867 273.262 60.2Z" fill="white"/>
<defs>
<linearGradient id="paint0_linear_102_3" x1="-24.674" y1="80.6066" x2="-0.28052" y2="-60.3043" gradientUnits="userSpaceOnUse">
<stop stop-color="#A5845A"/>
<stop offset="0.0093" stop-color="#A38358"/>
<stop offset="0.107" stop-color="#967744"/>
<stop offset="0.2053" stop-color="#8E6F38"/>
<stop offset="0.3043" stop-color="#8B6D34"/>
<stop offset="0.3738" stop-color="#967941"/>
<stop offset="0.5025" stop-color="#B39864"/>
<stop offset="0.6752" stop-color="#E1CA9B"/>
<stop offset="0.6813" stop-color="#E3CC9D"/>
<stop offset="0.6814" stop-color="#E1CA9B"/>
<stop offset="0.761" stop-color="#D8BF91"/>
<stop offset="0.9081" stop-color="#BA9D71"/>
<stop offset="1" stop-color="#A5845A"/>
</linearGradient>
</defs>
</svg>
