<svg width="32" height="30" viewBox="0 0 32 30" fill="none" xmlns="http://www.w3.org/2000/svg">
<g filter="url(#filter0_d_79_106)">
<path d="M2.42719 12.2175C2.11414 12.5305 1.95799 12.8988 1.95873 13.3223C1.95946 13.7459 2.11562 14.1141 2.42719 14.4272L12.3709 24.3709C12.6839 24.6839 13.0522 24.8401 13.4757 24.8393C13.8993 24.8386 14.2675 24.6824 14.5806 24.3709C14.8936 24.0593 15.0501 23.6907 15.0501 23.2649C15.0501 22.8392 14.8936 22.4713 14.5806 22.1612L5.74175 13.3223L14.5806 4.4835C14.8936 4.17046 15.0501 3.8018 15.0501 3.37754C15.0501 2.95328 14.8936 2.58536 14.5806 2.27379C14.2675 1.96222 13.8989 1.8057 13.4746 1.80423C13.0504 1.80276 12.6824 1.95928 12.3709 2.27379L2.42719 12.2175ZM13.4757 12.2175C13.1627 12.5305 13.0065 12.8988 13.0073 13.3223C13.008 13.7459 13.1642 14.1141 13.4757 14.4272L23.4194 24.3709C23.7325 24.6839 24.1007 24.8401 24.5243 24.8393C24.9478 24.8386 25.3161 24.6824 25.6291 24.3709C25.9422 24.0593 26.0987 23.6906 26.0987 23.2649C26.0987 22.8392 25.9422 22.4713 25.6291 22.1612L16.7903 13.3223L25.6291 4.4835C25.9422 4.17046 26.0987 3.80181 26.0987 3.37754C26.0987 2.95328 25.9422 2.58536 25.6291 2.27379C25.3161 1.96222 24.9474 1.8057 24.5232 1.80423C24.0989 1.80276 23.731 1.95928 23.4194 2.27379L13.4757 12.2175Z" fill="#2A2A2A"/>
</g>
<defs>
<filter id="filter0_d_79_106" x="0.95874" y="0.80423" width="30.1399" height="29.0351" filterUnits="userSpaceOnUse" color-interpolation-filters="sRGB">
<feFlood flood-opacity="0" result="BackgroundImageFix"/>
<feColorMatrix in="SourceAlpha" type="matrix" values="0 0 0 0 0 0 0 0 0 0 0 0 0 0 0 0 0 0 127 0" result="hardAlpha"/>
<feOffset dx="2" dy="2"/>
<feGaussianBlur stdDeviation="1.5"/>
<feComposite in2="hardAlpha" operator="out"/>
<feColorMatrix type="matrix" values="0 0 0 0 0.164706 0 0 0 0 0.368627 0 0 0 0 0.592157 0 0 0 1 0"/>
<feBlend mode="normal" in2="BackgroundImageFix" result="effect1_dropShadow_79_106"/>
<feBlend mode="normal" in="SourceGraphic" in2="effect1_dropShadow_79_106" result="shape"/>
</filter>
</defs>
</svg>
